<svg width="182" height="30" viewBox="0 0 182 30" fill="none" xmlns="http://www.w3.org/2000/svg">
<g id="Frame" clip-path="url(#clip0_66_11)">
<path id="Vector" d="M16.3253 20.1438C14.9722 23.2548 13.5917 24.4087 13.5917 24.4087C12.4467 25.5733 11.0826 26.1556 9.49937 26.1556C7.91614 26.1556 6.59039 25.6057 5.47282 24.5057C4.35525 23.4058 3.79646 22.0848 3.79646 20.5428C3.79646 19.0007 4.35525 17.6635 5.47282 16.569C6.59039 15.4745 7.93258 14.9299 9.49937 14.9299C11.0662 14.9299 12.4576 15.5068 13.5917 16.6553L16.3089 13.9648C14.3641 12.11 12.0961 11.188 9.50485 11.188C6.91361 11.188 4.65108 12.0992 2.78845 13.9216C0.931311 15.7441 0 17.9493 0 20.5374C0 23.1254 0.931311 25.3145 2.78845 27.1477C4.6456 28.9756 6.88622 29.8922 9.50485 29.8922C12.1235 29.8922 14.397 28.9594 16.3253 27.0938C17.5141 26.0963 19.6397 22.2735 19.6397 22.2735L16.3253 20.1384V20.1438Z" fill="white"/>
<path id="Vector_2" d="M36.1896 20.5913C36.1896 23.1955 35.2583 25.4116 33.3957 27.2448C31.5331 29.078 29.276 29.9946 26.6355 29.9946C23.9949 29.9946 21.7379 29.078 19.8753 27.2448C18.0126 25.4116 17.0813 23.1955 17.0813 20.5913C17.0813 17.9871 18.0126 15.771 19.8753 13.9378C21.7379 12.1046 23.9895 11.188 26.6355 11.188C29.2815 11.188 31.5331 12.1046 33.3957 13.9378C35.2583 15.771 36.1896 17.9924 36.1896 20.5913ZM31.1715 20.5913C31.1715 19.3512 30.7278 18.2998 29.8458 17.4263C28.9638 16.5582 27.89 16.1215 26.63 16.1215C25.37 16.1215 24.3017 16.5582 23.4142 17.4263C22.5322 18.2944 22.0885 19.3512 22.0885 20.5913C22.0885 21.8314 22.5322 22.8828 23.4142 23.7563C24.2962 24.6244 25.37 25.0611 26.63 25.0611C27.89 25.0611 28.9583 24.6244 29.8458 23.7563C30.7278 22.8882 31.1715 21.8314 31.1715 20.5913Z" fill="white"/>
<path id="Vector_3" d="M42.5719 29.5255H37.5537V0H42.5719V29.5255Z" fill="white"/>
<path id="Vector_4" d="M49.4307 29.5255H44.4126V0H49.4307V29.5255Z" fill="white"/>
<path id="Vector_5" d="M69.936 29.5255H64.9178V28.3016C63.9153 29.4285 62.2444 29.9946 59.8997 29.9946C57.2866 29.9946 55.1226 29.0834 53.4025 27.2663C51.6823 25.4493 50.8222 23.2225 50.8222 20.5913C50.8222 17.9601 51.6987 15.7495 53.4518 13.927C55.2048 12.0992 57.3523 11.188 59.8997 11.188C62.2061 11.188 63.8824 11.7595 64.9178 12.9026V11.6571H69.936V29.5255ZM64.9178 20.5913C64.9178 19.3512 64.4741 18.2998 63.5921 17.4263C62.7101 16.5582 61.6363 16.1215 60.3763 16.1215C59.1163 16.1215 58.0481 16.5582 57.166 17.4263C56.284 18.2944 55.8403 19.3512 55.8403 20.5913C55.8403 21.8314 56.284 22.8828 57.166 23.7563C58.0481 24.6244 59.1218 25.0611 60.3763 25.0611C61.6309 25.0611 62.7046 24.6244 63.5921 23.7563C64.4741 22.8882 64.9178 21.8314 64.9178 20.5913Z" fill="white"/>
<path id="Vector_6" d="M91.3451 20.5913C91.3451 23.2225 90.485 25.4493 88.7649 27.2664C87.0447 29.0834 84.8807 29.9946 82.2676 29.9946C79.9284 29.9946 78.252 29.4285 77.2495 28.3016V29.5255H72.2314V0H77.2495V12.9026C78.2849 11.7595 79.9557 11.188 82.2676 11.188C84.815 11.188 86.968 12.0992 88.7155 13.927C90.4686 15.7549 91.3451 17.9763 91.3451 20.5913V20.5913ZM86.327 20.5913C86.327 19.3512 85.8833 18.2998 85.0013 17.4263C84.1193 16.5582 83.0455 16.1215 81.7855 16.1215C80.5255 16.1215 79.4572 16.5582 78.5697 17.4263C77.6823 18.2944 77.244 19.3512 77.244 20.5913C77.244 21.8314 77.6877 22.8828 78.5697 23.7563C79.4517 24.6244 80.5255 25.0611 81.7855 25.0611C83.0455 25.0611 84.1138 24.6244 85.0013 23.7563C85.8833 22.8882 86.327 21.8314 86.327 20.5913Z" fill="white"/>
<g id="Group">
<path id="Vector_7" d="M97.5466 8.37352L100.669 7.74268V11.7218H104.46V14.3099H100.669V24.4249C100.669 25.665 100.981 26.4307 101.606 26.7326C102.231 27.0292 103.217 27.1154 104.553 26.9806V29.6981C102.258 29.876 100.521 29.5957 99.3325 28.8516C98.1437 28.1129 97.5521 26.6248 97.5521 24.3926V14.3099H94.9718V11.7218H97.5521V8.37352H97.5466Z" fill="white"/>
<path id="Vector_8" d="M121.24 11.7218H124.363V29.6658H121.24V27.2448C120.665 28.1507 119.799 28.8246 118.643 29.2668C117.488 29.7089 116.304 29.9407 115.094 29.9623C112.206 29.9623 109.938 29.0565 108.295 27.2448C106.651 25.4332 105.83 23.2226 105.83 20.6129C105.83 18.0033 106.662 15.9005 108.328 14.1104C109.993 12.3203 112.228 11.4253 115.033 11.4253C117.838 11.4253 120.002 12.3203 121.273 14.1104L121.24 11.7218V11.7218ZM121.24 20.6776C121.24 18.6665 120.599 17.0921 119.312 15.949C118.024 14.8113 116.578 14.2506 114.968 14.2722C113.121 14.2937 111.653 14.903 110.574 16.0946C109.489 17.2862 108.952 18.7905 108.952 20.6075C108.952 22.4246 109.528 23.9612 110.673 25.2337C111.818 26.5062 113.335 27.1208 115.225 27.0723C116.797 27.0292 118.194 26.4415 119.41 25.3146C120.632 24.1877 121.24 22.6402 121.24 20.6722V20.6776Z" fill="white"/>
<path id="Vector_9" d="M130.855 6.44861V29.6657H127.732V6.44861H130.855Z" fill="white"/>
<path id="Vector_10" d="M151.458 19.9173C151.524 20.4457 151.502 20.9687 151.393 21.4756H136.81C136.81 23.1362 137.418 24.4896 138.639 25.541C139.861 26.5924 141.181 27.1154 142.606 27.1154C143.707 27.1154 144.72 26.862 145.63 26.3552C146.544 25.8483 147.24 25.1043 147.733 24.1337H150.949C150.314 26.0155 149.223 27.4605 147.684 28.4795C146.145 29.4986 144.441 30.0054 142.573 30.0054C140.173 30.0054 138.091 29.1859 136.333 27.5521C134.569 25.9184 133.692 23.6377 133.692 20.7207C133.692 17.8038 134.569 15.5284 136.322 13.9055C138.075 12.2825 140.179 11.4684 142.644 11.4684C144.939 11.4684 146.939 12.2071 148.648 13.6898C150.357 15.1726 151.294 17.2484 151.464 19.9281L151.458 19.9173ZM136.936 18.7905H148.177C147.903 17.2861 147.246 16.1646 146.221 15.426C145.191 14.6873 143.997 14.3153 142.638 14.3153C141.28 14.3153 140.036 14.6873 138.979 15.426C137.916 16.1646 137.237 17.2915 136.941 18.7905H136.936Z" fill="white"/>
<path id="Vector_11" d="M154.482 11.7218H157.605V13.9433C158.706 12.2826 160.47 11.4576 162.892 11.4576C165.313 11.4576 167.296 12.2179 168.529 13.7276C169.761 15.2427 170.375 17.3401 170.375 20.0144V29.6658H167.285V20.0468C167.285 18.192 166.968 16.7794 166.332 15.8196C165.697 14.8599 164.519 14.3638 162.799 14.3423C161.182 14.3207 159.917 14.8329 158.991 15.8843C158.065 16.9357 157.605 18.2783 157.605 19.912V29.6658H154.482V11.7218V11.7218Z" fill="white"/>
<path id="Vector_12" d="M174.993 8.37352L178.116 7.74268V11.7218H181.907V14.3099H178.116V24.4249C178.116 25.665 178.428 26.4307 179.053 26.7326C179.677 27.0292 180.663 27.1154 182 26.9806V29.6981C179.705 29.876 177.968 29.5957 176.779 28.8516C175.59 28.1129 174.999 26.6248 174.999 24.3926V14.3099H172.418V11.7218H174.999V8.37352H174.993Z" fill="white"/>
</g>
<path id="Vector_13" d="M17.4373 17.9493C15.6459 20.8932 12.7917 23.5568 12.7917 23.5568C11.8714 24.5057 10.7812 24.9856 9.51573 24.9856C8.25024 24.9856 7.19841 24.5543 6.32188 23.6862C5.44535 22.8235 5.00161 21.7721 5.00161 20.5428C5.00161 19.3134 5.43987 18.262 6.32188 17.3993C7.20388 16.5367 8.26667 16.0999 9.51573 16.0999C10.7648 16.0999 11.8769 16.569 12.7917 17.5018L16.3581 14.0187C14.4078 12.1316 12.1289 11.188 9.51573 11.188C6.90258 11.188 4.64552 12.0992 2.79385 13.9216C0.931234 15.7495 0.00540161 17.9547 0.00540161 20.5428C0.00540161 23.1308 0.931234 25.3361 2.7829 27.1585C4.63456 28.9809 6.87519 29.8922 9.50477 29.8922C12.1344 29.8922 14.4078 28.9486 16.3252 27.0615C19.3109 24.2415 21.2119 20.5374 21.2119 20.5374L17.4319 17.9439L17.4373 17.9493Z" fill="white"/>
</g>
<defs>
<clipPath id="clip0_66_11">
<rect width="182" height="30" fill="white"/>
</clipPath>
</defs>
</svg>
