<svg width="13" height="13" viewBox="0 0 13 13" fill="none" xmlns="http://www.w3.org/2000/svg">
<path id="Vector" d="M13 1.02624V9.92035C13 10.1925 12.8919 10.4536 12.6995 10.646C12.507 10.8385 12.246 10.9466 11.9739 10.9466C11.7018 10.9466 11.4408 10.8385 11.2483 10.646C11.0559 10.4536 10.9478 10.1925 10.9478 9.92035V3.50633L1.75471 12.6989C1.56195 12.8917 1.3005 13 1.02789 13C0.755275 13 0.493828 12.8917 0.301061 12.6989C0.108295 12.5061 0 12.2446 0 11.972C0 11.6993 0.108295 11.4378 0.301061 11.2451L9.49413 2.05249H3.08096C2.80882 2.05249 2.54782 1.94436 2.35539 1.75191C2.16296 1.55945 2.05485 1.29842 2.05485 1.02624C2.05485 0.754066 2.16296 0.493037 2.35539 0.300579C2.54782 0.108122 2.80882 0 3.08096 0H11.9739C12.246 0 12.507 0.108122 12.6995 0.300579C12.8919 0.493037 13 0.754066 13 1.02624Z" fill="black"/>
</svg>
